<?xml version="1.0" standalone="no"?>
<!DOCTYPE svg PUBLIC "-//W3C//DTD SVG 20010904//EN"
 "http://www.w3.org/TR/2001/REC-SVG-20010904/DTD/svg10.dtd">
<svg version="1.0" xmlns="http://www.w3.org/2000/svg"
 width="1440.000000pt" height="242.000000pt" viewBox="0 0 1440.000000 242.000000"
 preserveAspectRatio="xMidYMid meet">

<g transform="translate(0.000000,242.000000) scale(0.100000,-0.100000)"
fill="#000000" stroke="none">
<path d="M5382 2217 c-19 -23 -462 -1135 -462 -1159 0 -13 5 -29 12 -36 18
-18 63 -15 80 6 8 9 102 238 209 509 107 270 197 489 201 485 3 -4 93 -225
198 -492 106 -267 197 -493 202 -502 6 -12 21 -18 44 -18 27 0 37 5 46 25 10
23 -12 85 -217 598 -125 315 -232 578 -238 585 -12 16 -62 16 -75 -1z"/>
<path d="M11229 2213 c-21 -24 -463 -1133 -462 -1156 1 -10 7 -25 14 -33 14
-17 63 -18 77 -1 5 6 97 230 202 497 106 267 196 491 200 499 5 9 80 -170 205
-485 109 -274 202 -505 208 -511 16 -22 65 -15 82 11 15 22 5 49 -217 607
l-233 584 -31 3 c-19 2 -35 -3 -45 -15z"/>
<path d="M9169 2211 c-194 -27 -367 -137 -457 -290 -74 -127 -101 -306 -68
-461 49 -234 234 -418 468 -465 42 -8 98 -15 123 -15 75 0 195 29 273 65 l72
34 0 274 c0 199 -3 276 -12 285 -16 16 -63 15 -77 -1 -7 -9 -12 -97 -13 -253
l-3 -239 -60 -24 c-120 -47 -282 -37 -413 27 -79 38 -172 132 -210 212 -40 86
-51 137 -52 240 0 152 40 257 139 356 136 137 337 182 569 127 l74 -17 19 23
c25 31 24 46 -6 70 -50 39 -252 67 -366 52z"/>
<path d="M212 2184 c-27 -19 -28 -48 -2 -74 19 -19 33 -20 416 -20 253 0 402
4 415 10 26 15 26 75 0 90 -13 6 -161 10 -413 10 -340 0 -397 -2 -416 -16z"/>
<path d="M1256 2178 c-14 -20 -16 -91 -16 -578 0 -487 2 -558 16 -578 17 -24
62 -30 82 -10 9 9 12 153 12 584 0 507 -2 574 -16 588 -22 23 -60 20 -78 -6z"/>
<path d="M1476 2178 c-13 -19 -16 -60 -16 -251 l0 -228 25 -25 25 -25 179 3
c132 2 182 7 194 17 15 12 17 43 17 257 0 207 -2 245 -16 258 -21 21 -57 20
-77 -2 -15 -16 -17 -47 -17 -220 l0 -202 -110 0 -110 0 0 204 c0 173 -2 207
-16 220 -22 23 -60 20 -78 -6z"/>
<path d="M2026 2178 c-14 -20 -16 -92 -16 -581 0 -366 4 -565 10 -578 12 -22
68 -27 88 -7 9 9 12 153 12 584 0 507 -2 574 -16 588 -22 23 -60 20 -78 -6z"/>
<path d="M2408 2189 c-17 -9 -18 -48 -18 -587 0 -436 3 -581 12 -590 17 -17
629 -17 646 0 7 7 12 24 12 38 0 49 -6 50 -292 50 l-268 0 0 495 0 495 263 0
c243 0 265 1 280 18 23 25 22 69 -2 82 -26 14 -610 13 -633 -1z"/>
<path d="M3770 2180 c-20 -20 -20 -33 -20 -585 0 -552 0 -565 20 -585 25 -25
45 -25 70 0 20 20 20 33 20 588 0 538 -1 570 -18 585 -25 22 -48 21 -72 -3z"/>
<path d="M3966 2181 c-12 -13 -16 -28 -12 -43 6 -21 442 -653 487 -706 26 -30
69 -26 86 8 16 31 19 684 3 724 -12 34 -54 44 -80 21 -18 -17 -20 -35 -22
-282 l-3 -264 -195 278 c-208 297 -222 311 -264 264z"/>
<path d="M4666 2184 c-14 -14 -16 -81 -16 -588 0 -556 1 -573 20 -591 26 -24
64 -13 79 23 8 20 11 182 9 585 -3 540 -4 559 -22 573 -26 18 -51 18 -70 -2z"/>
<path d="M6108 2189 c-17 -9 -18 -48 -18 -587 0 -436 3 -581 12 -590 17 -17
699 -17 716 0 15 15 15 61 0 76 -9 9 -93 12 -315 12 l-303 0 0 523 c0 399 -3
528 -13 547 -14 27 -51 36 -79 19z"/>
<path d="M6328 2189 c-17 -9 -18 -43 -18 -477 0 -351 3 -471 12 -480 17 -17
479 -17 496 0 15 15 15 61 0 76 -9 9 -68 12 -205 12 l-193 0 0 413 c0 311 -3
418 -13 437 -14 27 -51 36 -79 19z"/>
<path d="M7046 2184 c-14 -13 -16 -64 -16 -403 0 -222 4 -411 10 -442 24 -128
111 -246 223 -302 250 -127 560 -23 659 220 23 57 23 64 26 486 2 315 0 433
-9 443 -14 17 -61 18 -77 2 -9 -9 -12 -109 -12 -388 0 -475 -7 -517 -101 -611
-108 -108 -307 -131 -445 -53 -52 29 -110 94 -138 153 -20 44 -21 64 -26 469
-4 361 -7 424 -20 432 -23 15 -57 12 -74 -6z"/>
<path d="M7271 2186 c-9 -10 -11 -125 -9 -423 l3 -409 28 -42 c43 -66 97 -96
179 -100 85 -5 140 14 191 64 65 65 67 82 67 510 0 415 0 414 -55 414 -55 0
-55 1 -55 -413 0 -361 -1 -384 -20 -414 -24 -41 -51 -55 -105 -55 -49 -1 -86
18 -112 59 -16 24 -18 64 -21 412 -2 254 -7 390 -14 398 -14 17 -63 17 -77 -1z"/>
<path d="M9861 2181 c-21 -21 -21 -29 -21 -575 0 -336 4 -565 10 -580 8 -21
16 -26 43 -26 18 0 38 5 45 12 9 9 12 144 12 545 l0 533 223 0 c212 0 224 -1
273 -24 168 -78 206 -313 72 -445 -44 -44 -94 -69 -157 -77 -57 -7 -81 -24
-81 -55 0 -17 218 -342 303 -451 43 -56 107 -50 107 10 0 14 -52 97 -131 208
-72 102 -129 187 -127 188 2 1 28 14 59 29 111 53 200 174 215 293 20 162 -74
333 -218 400 l-63 29 -272 3 c-263 3 -272 3 -292 -17z"/>
<path d="M11950 2180 c-20 -20 -20 -30 -18 -591 3 -552 4 -571 22 -585 27 -19
42 -18 66 6 20 20 20 33 20 588 0 538 -1 570 -18 585 -25 23 -48 21 -72 -3z"/>
<path d="M12144 2175 c-9 -14 -13 -32 -10 -41 8 -20 462 -672 489 -701 26 -29
61 -29 81 -1 14 19 16 72 16 375 0 340 -1 354 -20 373 -25 25 -52 26 -73 2
-14 -16 -17 -54 -19 -280 l-3 -263 -155 223 c-233 334 -236 338 -265 338 -15
0 -31 -9 -41 -25z"/>
<path d="M12847 2182 c-15 -17 -17 -72 -17 -590 l0 -572 25 -16 c30 -20 63
-10 76 23 5 14 9 256 9 579 0 541 0 554 -20 574 -25 25 -52 26 -73 2z"/>
<path d="M13216 2178 c-14 -20 -16 -91 -16 -578 0 -487 2 -558 16 -578 17 -24
62 -30 82 -10 9 9 12 144 12 545 l0 533 178 0 c127 0 194 -4 237 -15 174 -46
304 -180 340 -352 41 -190 -10 -370 -136 -487 -95 -89 -185 -122 -354 -132
-55 -3 -110 -7 -122 -10 -28 -5 -39 -44 -23 -74 12 -22 15 -22 153 -18 166 6
238 25 336 88 220 142 316 410 245 683 -25 98 -71 175 -154 257 -140 140 -239
170 -565 170 -210 0 -214 0 -229 -22z"/>
<path d="M9144 1976 c-189 -46 -308 -237 -275 -438 24 -143 105 -254 218 -300
69 -27 228 -33 256 -9 15 12 17 39 17 202 0 203 -4 219 -55 219 -49 0 -55 -19
-55 -182 l0 -151 -49 6 c-145 17 -241 145 -228 303 9 115 88 215 195 245 54
15 201 7 264 -15 35 -12 53 -14 67 -6 23 12 35 42 26 68 -17 56 -247 90 -381
58z"/>
<path d="M207 1962 c-22 -25 -21 -48 3 -72 18 -18 33 -20 135 -20 l115 0 0
-413 c0 -357 2 -416 16 -435 17 -24 62 -30 82 -10 9 9 12 129 12 480 0 452 -1
468 -19 478 -11 5 -87 10 -174 10 -136 0 -156 -2 -170 -18z"/>
<path d="M696 1958 c-14 -20 -16 -81 -16 -465 0 -314 3 -449 12 -468 8 -19 19
-25 43 -25 17 0 36 5 43 12 9 9 12 119 12 435 l0 423 116 0 c134 0 154 7 154
53 0 54 -8 57 -186 57 -157 0 -163 -1 -178 -22z"/>
<path d="M2628 1969 c-16 -9 -18 -27 -18 -149 0 -176 -6 -170 170 -170 138 0
173 10 178 50 5 48 -9 55 -130 60 l-113 5 -3 53 -3 52 153 0 c123 0 158 3 176
16 28 20 30 69 3 84 -26 13 -390 13 -413 -1z"/>
<path d="M10075 1956 c-18 -27 -7 -69 20 -80 9 -3 68 -6 130 -6 123 0 145 -8
145 -54 0 -37 -30 -56 -88 -56 -63 0 -97 -25 -83 -62 23 -65 151 -63 226 3 83
73 61 214 -39 260 -33 15 -66 19 -168 19 -123 0 -128 -1 -143 -24z"/>
<path d="M13436 1959 c-14 -20 -16 -57 -16 -252 l0 -228 24 -24 c16 -16 31
-23 43 -19 40 14 43 31 43 236 l0 198 63 0 c102 -1 182 -48 227 -136 21 -42
25 -63 25 -140 0 -83 -2 -94 -30 -139 -61 -98 -140 -135 -290 -135 -67 0 -76
-2 -90 -24 -18 -27 -7 -69 20 -80 57 -22 249 7 319 48 134 79 204 236 177 398
-22 136 -93 232 -209 286 -49 23 -73 27 -173 30 -113 4 -117 3 -133 -19z"/>
<path d="M3991 1771 c-20 -20 -21 -31 -21 -377 0 -226 4 -362 10 -375 12 -22
74 -27 87 -6 4 6 10 130 13 275 l5 264 192 -275 c106 -151 200 -276 210 -279
48 -11 84 33 61 75 -12 23 -475 687 -486 698 -20 19 -52 19 -71 0z"/>
<path d="M12187 1782 c-10 -2 -22 -15 -28 -28 -12 -34 -12 -695 1 -728 8 -21
16 -26 44 -26 19 0 38 6 43 13 4 6 10 131 13 277 l5 265 193 -277 c107 -152
201 -278 211 -281 47 -12 82 33 60 75 -34 66 -492 706 -507 710 -9 2 -25 2
-35 0z"/>
<path d="M5386 1617 c-23 -17 -19 -59 12 -134 l22 -53 -53 0 c-60 0 -77 -12
-77 -51 0 -44 32 -59 125 -59 93 0 129 14 133 52 3 29 -80 237 -100 250 -19
12 -42 10 -62 -5z"/>
<path d="M11230 1610 c-25 -25 -25 -28 5 -102 14 -34 25 -65 25 -70 0 -4 -22
-8 -48 -8 -59 0 -88 -24 -78 -65 9 -34 41 -45 131 -45 144 0 156 21 94 171
-23 57 -49 112 -57 122 -20 23 -47 22 -72 -3z"/>
<path d="M1476 1518 c-13 -19 -16 -60 -16 -248 0 -249 5 -270 59 -270 49 0 51
9 51 227 l0 203 110 0 110 0 0 -196 c0 -115 4 -203 10 -215 12 -22 68 -27 88
-7 9 9 12 79 12 254 0 207 -2 245 -16 258 -13 13 -46 16 -204 16 -184 0 -189
-1 -204 -22z"/>
<path d="M2628 1529 c-16 -9 -18 -27 -18 -147 0 -94 4 -142 12 -150 17 -17
409 -17 426 0 16 16 15 63 -1 77 -8 6 -76 12 -173 13 l-159 3 -3 53 -3 52 98
0 c111 0 146 12 151 51 6 52 -15 59 -171 59 -78 0 -150 -5 -159 -11z"/>
<path d="M10076 1438 c-13 -18 -16 -56 -16 -205 0 -212 5 -233 54 -233 18 0
38 6 44 13 6 7 13 60 14 117 l3 104 80 -114 c66 -95 85 -116 108 -118 35 -4
57 13 57 45 0 16 -49 96 -135 219 -123 176 -139 194 -165 194 -18 0 -34 -8
-44 -22z"/>
<path d="M5212 1197 c-6 -7 -20 -34 -31 -61 -37 -84 -23 -131 36 -124 22 2 32
12 47 46 l19 42 136 0 136 -1 20 -42 c16 -33 26 -43 48 -45 63 -7 72 35 28
133 l-30 65 -199 0 c-150 0 -202 -3 -210 -13z"/>
<path d="M11063 1202 c-6 -4 -23 -38 -38 -75 -23 -56 -26 -73 -17 -93 9 -19
19 -24 47 -24 33 0 38 4 56 45 l20 45 135 0 135 0 19 -45 c18 -41 22 -45 55
-45 28 0 38 5 47 25 9 21 7 35 -12 83 -39 97 -26 92 -244 92 -105 0 -196 -4
-203 -8z"/>
<path d="M1590 465 c0 -104 2 -125 15 -125 12 0 15 13 15 55 l0 55 70 0 70 0
0 -55 c0 -42 3 -55 15 -55 13 0 15 21 15 125 0 104 -2 125 -15 125 -12 0 -15
-13 -15 -55 l0 -55 -70 0 -70 0 0 55 c0 42 -3 55 -15 55 -13 0 -15 -21 -15
-125z"/>
<path d="M2180 465 c0 -104 2 -125 15 -125 13 0 15 21 15 125 0 104 -2 125
-15 125 -13 0 -15 -21 -15 -125z"/>
<path d="M2612 574 c-15 -10 -22 -25 -22 -48 0 -38 18 -58 78 -81 36 -15 42
-21 42 -46 0 -40 -39 -56 -83 -34 -38 19 -58 4 -26 -19 27 -18 81 -21 110 -5
28 14 41 53 29 85 -7 17 -28 33 -65 49 -46 21 -55 29 -55 50 0 34 39 53 76 36
31 -14 50 -5 33 15 -15 19 -89 18 -117 -2z"/>
<path d="M3520 575 c0 -11 12 -15 45 -15 l45 0 0 -110 c0 -91 3 -110 15 -110
12 0 15 19 15 110 l0 110 40 0 c29 0 40 4 40 15 0 12 -18 15 -100 15 -82 0
-100 -3 -100 -15z"/>
<path d="M4090 465 c0 -77 4 -125 10 -125 6 0 10 25 10 55 l0 55 70 0 70 0 0
-55 c0 -42 3 -55 15 -55 13 0 15 21 15 125 0 104 -2 125 -15 125 -12 0 -15
-13 -15 -55 l0 -55 -70 0 -70 0 0 55 c0 30 -4 55 -10 55 -6 0 -10 -48 -10
-125z"/>
<path d="M4670 465 c0 -104 2 -125 15 -125 12 0 15 13 15 55 0 48 2 55 20 55
17 0 69 -65 83 -104 1 -4 11 -7 20 -5 16 4 14 10 -13 52 -35 56 -36 63 -10 70
27 7 42 50 30 82 -12 31 -46 45 -111 45 l-49 0 0 -125z m124 79 c9 -8 16 -19
16 -24 0 -21 -34 -40 -71 -40 -39 0 -39 0 -39 40 0 40 0 40 39 40 23 0 46 -7
55 -16z"/>
<path d="M5263 570 c-41 -25 -55 -51 -55 -106 0 -82 53 -134 136 -134 90 0
154 108 111 190 -36 69 -123 92 -192 50z m137 -25 c33 -30 44 -72 31 -116 -19
-63 -87 -91 -145 -59 -66 35 -61 149 9 189 25 14 82 7 105 -14z"/>
<path d="M5850 465 c0 -77 4 -125 10 -125 6 0 10 40 10 101 0 60 4 98 9 94 6
-3 40 -48 76 -100 45 -65 72 -95 85 -95 19 0 20 8 20 125 0 103 -3 125 -15
125 -11 0 -15 -20 -17 -102 l-3 -103 -70 102 c-96 141 -105 139 -105 -22z"/>
<path d="M6450 465 l0 -125 85 0 c50 0 85 4 85 10 0 6 -30 10 -70 10 l-70 0 0
45 0 45 60 0 c47 0 60 3 60 15 0 12 -13 15 -60 15 l-60 0 0 40 0 40 65 0 c51
0 65 3 65 15 0 12 -16 15 -80 15 l-80 0 0 -125z"/>
<path d="M7820 585 c0 -3 20 -36 45 -75 38 -59 45 -78 45 -120 0 -38 4 -50 15
-50 12 0 15 13 15 55 0 48 6 64 45 125 37 57 42 70 27 70 -11 0 -31 -21 -51
-55 -18 -30 -36 -55 -40 -55 -3 0 -21 25 -39 55 -18 30 -40 55 -48 55 -8 0
-14 -2 -14 -5z"/>
<path d="M8433 570 c-40 -24 -56 -54 -56 -105 0 -108 108 -171 199 -116 32 20
64 74 64 110 0 101 -119 165 -207 111z m134 -22 c62 -51 42 -167 -31 -186 -42
-11 -71 -4 -100 24 -68 69 -11 194 82 180 19 -3 41 -11 49 -18z"/>
<path d="M9010 518 c1 -138 27 -187 101 -188 26 0 44 7 63 26 25 25 26 32 26
130 0 63 -4 104 -10 104 -6 0 -10 -33 -10 -79 0 -127 -25 -165 -95 -147 -35 9
-45 41 -45 142 0 68 -3 84 -15 84 -12 0 -15 -15 -15 -72z"/>
<path d="M9600 466 c0 -73 4 -126 9 -126 6 0 11 24 13 53 2 43 6 52 23 54 15
2 29 -11 53 -52 18 -30 40 -55 48 -55 19 0 18 3 -16 58 -34 56 -36 62 -16 62
19 0 46 39 46 66 0 36 -35 57 -100 62 l-60 4 0 -126z m111 84 c21 -12 25 -40
7 -58 -7 -7 -31 -12 -55 -12 l-43 0 0 40 c0 39 1 40 36 40 19 0 44 -5 55 -10z"/>
<path d="M10580 570 c-44 -44 -12 -109 61 -125 53 -12 61 -67 12 -86 -18 -7
-33 -5 -53 5 -37 18 -60 4 -29 -18 57 -39 142 -7 142 53 0 39 -20 60 -75 81
-34 12 -44 21 -46 43 -4 36 35 56 74 38 31 -14 50 -5 33 15 -18 22 -95 18
-119 -6z"/>
<path d="M11070 575 c0 -11 11 -15 40 -15 l40 0 0 -110 c0 -91 3 -110 15 -110
12 0 15 19 15 110 l0 110 45 0 c33 0 45 4 45 15 0 12 -18 15 -100 15 -82 0
-100 -3 -100 -15z"/>
<path d="M11658 465 c-48 -107 -54 -125 -38 -125 11 0 22 12 29 30 10 29 12
30 74 30 62 0 65 -1 77 -30 15 -36 45 -43 34 -8 -22 70 -94 223 -106 226 -10
2 -33 -40 -70 -123z m108 -21 c6 -23 4 -24 -38 -24 -25 0 -47 3 -50 6 -3 3 6
33 20 66 l26 60 18 -42 c10 -23 21 -53 24 -66z"/>
<path d="M12194 563 c8 -16 29 -48 45 -73 25 -36 31 -56 31 -97 0 -40 4 -53
15 -53 11 0 15 13 15 53 0 45 6 63 38 113 21 32 41 65 46 72 4 7 1 12 -8 12
-9 0 -32 -25 -52 -55 -20 -30 -38 -55 -40 -55 -2 0 -19 25 -39 55 -19 30 -42
55 -50 55 -14 0 -14 -3 -1 -27z"/>
<path d="M6993 330 c-13 -50 9 -57 26 -9 14 41 14 49 -2 49 -7 0 -18 -18 -24
-40z"/>
<path d="M12752 353 c2 -10 10 -18 18 -18 8 0 16 8 18 18 2 12 -3 17 -18 17
-15 0 -20 -5 -18 -17z"/>
</g>
</svg>
